<svg xmlns="http://www.w3.org/2000/svg" viewBox="0 0 44.15 12.51"><defs><style>.cls-1{fill:violet;}</style></defs><g id="图层_2" data-name="图层 2"><g id="图层_1-2" data-name="图层 1"><path class="cls-1" d="M3.36.52A4,4,0,0,0,4.58,2,7.93,7.93,0,0,1,6.39,3.78a2.54,2.54,0,0,1,.53,1.44,2.81,2.81,0,0,1-.66,1.66A5.73,5.73,0,0,1,4.94,8.07l-.18-.23.17-.18A4.69,4.69,0,0,0,6,6.44a2.2,2.2,0,0,0,.29-1.05c0-.8-.78-1.59-2.64-2.7v6.2c0,.69,0,.76-.18,1.08A2.48,2.48,0,0,1,1.34,11.2a1.31,1.31,0,0,1-1-.39A1.21,1.21,0,0,1,0,10,1.56,1.56,0,0,1,.91,8.7,2.71,2.71,0,0,1,2,8.4a3.72,3.72,0,0,1,.68.07.82.82,0,0,1,.4.13V.52Z"/><path class="cls-1" d="M11.54,12.51a10.1,10.1,0,0,1-1.27-2.28,9.08,9.08,0,0,1-.69-3.57,9.41,9.41,0,0,1,.46-3A10,10,0,0,1,11.54.83l1.27.81A8,8,0,0,0,11.57,4a8.18,8.18,0,0,0-.41,2.65,8.6,8.6,0,0,0,.38,2.6,8.6,8.6,0,0,0,1.25,2.38Z"/><path class="cls-1" d="M15.42,3l-.52-.52L17,.29l1,1.09Z"/><path class="cls-1" d="M26.24,5.5a2,2,0,0,0-1.81-.79c-1,0-1.55.38-1.55,1a.71.71,0,0,0,.22.51,1,1,0,0,0,.71.18c.45,0,1.12,0,1.5-.08l-.39,1.4a12.48,12.48,0,0,0-1.38-.08,1.7,1.7,0,0,0-.9.19,1,1,0,0,0-.48.81c0,.59.51.93,1.41.93a2.73,2.73,0,0,0,2.08-.9l1.15.75a3.48,3.48,0,0,1-1,.87,4.46,4.46,0,0,1-2.19.51,4,4,0,0,1-2.18-.51,1.76,1.76,0,0,1-.76-1.49,1.82,1.82,0,0,1,.78-1.55,1.91,1.91,0,0,1,.86-.33,1.32,1.32,0,0,1-.86-1.28,1.8,1.8,0,0,1,.7-1.41,3.69,3.69,0,0,1,2.41-.72,3.66,3.66,0,0,1,2,.47,2.67,2.67,0,0,1,.8.73Z"/><path class="cls-1" d="M31.58,0,34.5,1.63l-.28.56L31,1.22Z"/><path class="cls-1" d="M40.93,11.66a8.09,8.09,0,0,0,1.25-2.38,8.6,8.6,0,0,0,.38-2.6A8.45,8.45,0,0,0,42.16,4a8,8,0,0,0-1.25-2.39L42.18.83a9.77,9.77,0,0,1,1.51,2.84,9.75,9.75,0,0,1,.46,3,9.23,9.23,0,0,1-.69,3.57,10.19,10.19,0,0,1-1.28,2.28Z"/></g></g></svg>